<svg width="24" height="24" viewBox="0 0 24 24" fill="none" xmlns="http://www.w3.org/2000/svg">
  <rect width="24" height="24" rx="4" fill="#6366F1"/>
  <path d="M8 6L16 6L16 8L8 8L8 6Z" fill="white"/>
  <path d="M8 10L16 10L16 12L8 12L8 10Z" fill="white"/>
  <path d="M8 14L16 14L16 16L8 16L8 14Z" fill="white"/>
  <path d="M8 18L16 18L16 20L8 20L8 18Z" fill="white"/>
  <path d="M18 8L20 8L20 10L18 10L18 8Z" fill="white"/>
  <path d="M18 12L20 12L20 14L18 14L18 12Z" fill="white"/>
  <path d="M18 16L20 16L20 18L18 18L18 16Z" fill="white"/>
  <path d="M4 8L6 8L6 10L4 10L4 8Z" fill="white"/>
  <path d="M4 12L6 12L6 14L4 14L4 12Z" fill="white"/>
  <path d="M4 16L6 16L6 18L4 18L4 16Z" fill="white"/>
</svg>
