<svg width="80" height="80" viewBox="0 0 80 80" xmlns="http://www.w3.org/2000/svg" fill="none">
  <!-- Left curly brace -->
  <path d="M28 15c-5 0-8 3-8 8v8c0 3-2 5-5 5v5c3 0 5 3 5 5v8c0 5 3 8 8 8" stroke="#FFFFFF" stroke-width="3" fill="none"/>

  <!-- Right curly brace -->
  <path d="M52 15c5 0 8 3 8 8v8c0 3 2 5 5 5v5c-3 0-5 3-5 5v8c0 5-3 8-8 8" stroke="#FFFFFF" stroke-width="3" fill="none"/>

  <!-- Left arrow -->
  <path d="M25 40h-8m0 0l4-4m-4 4l4 4" stroke="#FFFFFF" stroke-width="3" stroke-linecap="round" stroke-linejoin="round"/>

  <!-- Right arrow -->
  <path d="M55 40h8m0 0l-4-4m4 4l-4 4" stroke="#FFFFFF" stroke-width="3" stroke-linecap="round" stroke-linejoin="round"/>

  <!-- Label -->
  <text x="40" y="72" text-anchor="middle" font-size="12" fill="#FFFFFF" font-family="sans-serif">REST API</text>
</svg>
